<svg xmlns="http://www.w3.org/2000/svg" width="331.973" height="71.114" viewBox="0 0 331.973 71.114">
  <g id="logo" transform="translate(69.719 -51.643)">
    <path id="Path_1098" data-name="Path 1098" d="M6.2,0V-14.756c1.054.062,1.984.124,2.914.124a32.661,32.661,0,0,0,8.184-.93L29.574.558,31.062-.558,19.22-16.12c7.254-2.48,10.912-7.688,10.912-12.958,0-7.192-7.006-14.508-21.018-14.508-1.364,0-3.162.062-4.774.186V0ZM9.114-41.726c12.772,0,19.158,6.324,19.158,12.648S21.886-16.492,9.114-16.492c-.868,0-1.922-.062-2.914-.124V-41.664C7.254-41.726,8.246-41.726,9.114-41.726ZM60.636-1.86c-1.3.124-2.6.186-3.782.186-13.082,0-19.282-7.688-19.282-15.066a11.947,11.947,0,0,1,.062-1.488H64.356c0-8.8-5.084-15.624-13.888-15.624-5.642,0-14.756,4.216-14.756,17.112C35.712-8.122,42.9.248,56.668.248c1.24,0,2.6-.124,3.968-.248ZM50.468-31.992c7.812,0,11.9,6.7,11.9,11.9H37.82C39.122-28.148,45.136-31.992,50.468-31.992Zm20.708-8.37h3.1V-43.4h-3.1ZM59.892,14.384a6.785,6.785,0,0,0,6.076,3.782c4.216,0,7.688-3.658,7.688-9.858v-41.54H71.8V8.308c0,5.084-2.6,8-5.828,8a5.068,5.068,0,0,1-4.464-2.79ZM81.716-33.232v21.266c0,7.5,5.89,12.586,12.958,12.586s12.958-5.084,12.958-12.586V-33.232h-1.86v21.266c0,6.386-5.022,10.726-11.1,10.726s-11.1-4.34-11.1-10.726V-33.232Zm32.736.31L127.658,1.24l13.206-34.162-1.736-.62-11.47,29.7-11.47-29.7Zm34.72,4.9a13.829,13.829,0,0,1,10.044-3.968c4.03,0,9.3,2.542,9.3,10.85v1.736a15.459,15.459,0,0,0-10.85-4.278c-7.006,0-13.144,4.65-13.144,12.09S150.722.62,157.666.62a15.865,15.865,0,0,0,10.85-3.844V0h1.86V-21.142c0-9.672-6.386-12.71-11.16-12.71a15.86,15.86,0,0,0-11.408,4.588ZM157.666-1.24c-5.952,0-11.284-4.03-11.284-10.354s5.27-10.23,11.284-10.23a13.576,13.576,0,0,1,10.85,5.084V-5.952A13.666,13.666,0,0,1,157.666-1.24Zm20.77-42.16V0h22.816V-1.86H180.3V-43.4ZM209-33.232V0h1.86V-33.232Zm-.62-7.068h3.1v-3.1h-3.1Zm8.122,8.928h2.79V18.166h1.86V-31.372h9.8v-1.86h-9.8v-7.13c0-6.758,4.278-10.726,9.362-10.726,3.472,0,5.394.992,8,3.41l1.24-1.364c-2.728-2.542-5.022-3.906-9.238-3.906-6.076,0-11.222,4.712-11.222,12.586v7.13H216.5ZM257.424-1.86c-1.3.124-2.6.186-3.782.186-13.082,0-19.282-7.688-19.282-15.066a11.947,11.947,0,0,1,.062-1.488h26.722c0-8.8-5.084-15.624-13.888-15.624-5.642,0-14.756,4.216-14.756,17.112,0,8.618,7.192,16.988,20.956,16.988,1.24,0,2.6-.124,3.968-.248ZM247.256-31.992c7.812,0,11.9,6.7,11.9,11.9H234.608C235.91-28.148,241.924-31.992,247.256-31.992Z" transform="translate(1.11 104.591)" fill="#86a8c1"/>
    <g id="Group_72" data-name="Group 72" transform="translate(-168 51)">
      <ellipse id="Ellipse_36" data-name="Ellipse 36" cx="27.649" cy="30.976" rx="27.649" ry="30.976" transform="translate(98.586 3.334)" fill="#86a8c1"/>
      <path id="Path_1089" data-name="Path 1089" d="M27.954,0C43.393,0,55.909,11.042,55.909,24.662S43.393,49.324,27.954,49.324,0,38.283,0,24.662,12.516,0,27.954,0Z" transform="translate(98.281 9.647)" fill="#5f7994"/>
      <path id="Path_1088" data-name="Path 1088" d="M131.2,37.24a16.367,16.367,0,0,0-6.8-2.058,38.7,38.7,0,0,0,5.167-6.873l.359-.644-.73-.038a23.588,23.588,0,0,0-8.447,1.479,24.436,24.436,0,0,0-2.4,1.024,16.141,16.141,0,0,0,.986-2.447,17.761,17.761,0,0,0,.8-6.749l-.067-.522-.512.133a13.225,13.225,0,0,0-7.688,4.968,18.962,18.962,0,0,0-.53-2.626,19.391,19.391,0,0,0-2.893-6.239l-.359-.474-.361.474a19.4,19.4,0,0,0-2.891,6.239,18.813,18.813,0,0,0-.532,2.645,13.082,13.082,0,0,0-7.688-4.986l-.512-.133-.066.522a17.518,17.518,0,0,0,.8,6.749,16.732,16.732,0,0,0,1.024,2.522,21.616,21.616,0,0,0-2.5-1.09,23.973,23.973,0,0,0-8.381-1.488l-.73.038.361.644A37.7,37.7,0,0,0,91.24,34.6c.171.2.351.389.532.578a16.523,16.523,0,0,0-6.8,2.058l-.587.323,5.791,4.749c.067.057.143.114.219.171.218.171.417.331.626.484.227.17.445.321.673.473a13.443,13.443,0,0,0,5.593,2.2,11.728,11.728,0,0,0,1.734.123,13.261,13.261,0,0,0,2.712-.285,17.434,17.434,0,0,0,5.2-2.076c.323-.189.645-.389.976-.606l.142-.1s.01,0,.01-.009.01,0,.01.009l.142.1c.332.218.664.417.976.606a17.446,17.446,0,0,0,5.2,2.076,13.333,13.333,0,0,0,2.712.285,11.662,11.662,0,0,0,1.735-.123,13.456,13.456,0,0,0,5.593-2.2c.227-.152.455-.313.672-.473s.418-.313.626-.484c.076-.057.153-.123.219-.171l5.792-4.749Zm-10.182-7.261a24.43,24.43,0,0,1,7.347-1.442,40.777,40.777,0,0,1-5.167,6.579,17.318,17.318,0,0,0-2.872.219A23.485,23.485,0,0,0,113.1,37.77a27.19,27.19,0,0,0-3.326,2.058c-.105.076-.2.142-.275.208A20.644,20.644,0,0,1,121.018,29.978Zm-1.763-8.391a17.855,17.855,0,0,1-.805,5.868,16.175,16.175,0,0,1-1.574,3.489,21.838,21.838,0,0,0-8.343,8.977l.01-.132c.02-.171.038-.342.057-.5l.265-2.114C110.182,27.788,113.139,23.407,119.254,21.588ZM105.7,23.18a19.933,19.933,0,0,1,2.379-5.432,19.973,19.973,0,0,1,2.379,5.432,18.506,18.506,0,0,1,.616,3.527,27,27,0,0,0-3.005,9.519,27.64,27.64,0,0,0-3-9.481A19.732,19.732,0,0,1,105.7,23.18Zm-7.982,4.276a17.865,17.865,0,0,1-.807-5.868c6.067,1.811,9.026,6.229,10.409,15.746l.237,1.8c.029.219.048.428.076.645l.02.209a22.425,22.425,0,0,0-8.3-8.95A15.814,15.814,0,0,1,97.716,27.456Zm-5.8,6.532A41.6,41.6,0,0,1,87.8,28.546,24.079,24.079,0,0,1,95.07,30a21.081,21.081,0,0,1,11.537,9.993c-.066-.048-.132-.1-.208-.153a27.4,27.4,0,0,0-3.328-2.057,23.268,23.268,0,0,0-7.224-2.437,18.736,18.736,0,0,0-2.883-.218Q92.44,34.57,91.914,33.988Zm15.662,7.963-.143.1c-.321.209-.634.408-.939.588a16.786,16.786,0,0,1-4.93,1.972,12.014,12.014,0,0,1-4.143.152A12.53,12.53,0,0,1,92.208,42.7c-.219-.142-.428-.293-.645-.445-.2-.143-.389-.295-.6-.464-.076-.057-.142-.115-.208-.171l-4.75-3.9a15.865,15.865,0,0,1,9.708-1.48,22.2,22.2,0,0,1,6.94,2.351,25.633,25.633,0,0,1,3.213,1.982c.3.227.512.389.617.464l1.09.909Zm17.842-.341c-.067.057-.133.114-.209.171-.2.161-.4.313-.6.464s-.426.313-.634.446a12.539,12.539,0,0,1-5.214,2.057,12.014,12.014,0,0,1-4.143-.152,16.267,16.267,0,0,1-4.93-1.972c-.3-.18-.617-.369-.939-.588l-.143-.094a.009.009,0,0,1-.009-.01l1.09-.9c.094-.076.3-.247.616-.464a24.685,24.685,0,0,1,3.214-1.982,22.447,22.447,0,0,1,6.939-2.35,15.806,15.806,0,0,1,9.708,1.479Z" transform="translate(18.491 2.851)" fill="#f2f4f5"/>
    </g>
  </g>
</svg>
